<svg version="1" xmlns="http://www.w3.org/2000/svg" width="400" height="400" viewBox="0 0 300.000000 300.000000"><path d="M91.7 1.2c-4.8 1-12.3 5-16.3 8.5-13.2 11.8-16.1 31.6-6.8 46.5 1.3 2 8.5 9.8 15.9 17.4 7.5 7.5 13.4 13.8 13.3 14-.2.2-7.1 7.2-15.3 15.6-17.4 17.7-23.7 25.7-29.9 38.3-9 18.2-11.6 30.3-11.2 51 .2 8.2.6 16.3 1 18 5.3 23.6 14.5 41.1 30.1 57.1 42 42.9 113 42.8 155.1-.2 13.7-13.9 23.1-30.3 28.1-49.2 2.4-8.6 2.6-11.6 2.7-27.2 0-15.2-.3-18.7-2.3-26.5-6-23-14.8-37.1-37.9-60.6l-16.3-16.7 12.8-12.8c15.6-15.7 17.6-18.2 20.2-26.1 9.6-28.5-17.8-55.5-46.5-45.7-6.6 2.2-9.9 4.8-24.6 19.4-7 6.9-13.2 12.5-13.8 12.5-.5 0-7-5.9-14.3-13.1-7.2-7.2-14.5-14-16.2-15.1-6.7-4.6-19.4-7-27.8-5.1zm73.4 153.3c7.8 7.7 15.2 15.6 16.5 17.6 2.9 4.6 5.4 13.1 5.4 18.3 0 4.5-2 12.9-4 16.6-4.1 7.9-12.5 15.2-21 18.3-27.6 10.1-56.4-17.5-47-45.2 1.2-3.6 2.8-7.4 3.6-8.5 2.4-3.5 30.7-31.7 31.5-31.4.5.2 7.2 6.6 15 14.3z"/></svg>